<svg width="24" height="24" viewBox="0 0 24 24" fill="none" xmlns="http://www.w3.org/2000/svg">
<path d="M18.3636 3.81812H5.63636C4.63181 3.81812 3.81818 4.63175 3.81818 5.6363V18.3636C3.81818 19.3681 4.63181 20.1818 5.63636 20.1818H18.3636C19.3682 20.1818 20.1818 19.3681 20.1818 18.3636V5.6363C20.1818 4.63175 19.3682 3.81812 18.3636 3.81812ZM9.27272 16.5454H6.97909V10.1818H9.27272V16.5454ZM8.08545 9.01539C7.38454 9.01539 6.91636 8.54812 6.91636 7.92448C6.91636 7.30084 7.38363 6.83357 8.16272 6.83357C8.86363 6.83357 9.33181 7.30084 9.33181 7.92448C9.33181 8.54812 8.86454 9.01539 8.08545 9.01539ZM17.4545 16.5454H15.2345V13.0672C15.2345 12.1054 14.6427 11.8836 14.4209 11.8836C14.1991 11.8836 13.4591 12.0318 13.4591 13.0672C13.4591 13.2154 13.4591 16.5454 13.4591 16.5454H11.1654V10.1818H13.4591V11.0699C13.7545 10.5518 14.3464 10.1818 15.4564 10.1818C16.5664 10.1818 17.4545 11.0699 17.4545 13.0672V16.5454Z" fill="white"/>
</svg>
