<svg width="26" height="26" viewBox="0 0 26 26" fill="none" xmlns="http://www.w3.org/2000/svg">
<circle cx="13" cy="13" r="12" stroke="white" stroke-width="2"/>
<path d="M19.5 16.4993V19.436C19.5 19.872 19.2068 20.2337 18.8287 20.2644C18.5128 20.2901 18.2551 20.3029 18.0556 20.3029C11.6736 20.3029 6.5 14.3538 6.5 7.01521C6.5 6.78576 6.51116 6.48941 6.53348 6.12618C6.56021 5.69132 6.87479 5.35425 7.2539 5.35425H9.80785C9.99323 5.35425 10.1485 5.51571 10.1671 5.7278C10.1838 5.9182 10.1994 6.07107 10.2137 6.18641C10.3598 7.35963 10.6582 8.47632 11.0852 9.50917C11.1537 9.67495 11.109 9.87338 10.9791 9.98008L9.42034 11.2605C10.3693 13.8095 12.147 15.8536 14.3637 16.9449L15.4751 15.1555C15.5691 15.0044 15.7437 14.9524 15.8896 15.032C16.7878 15.5226 17.7588 15.8653 18.7789 16.0329C18.8786 16.0493 19.0107 16.067 19.1751 16.0861C19.3596 16.1076 19.5 16.2861 19.5 16.4993Z" fill="#FDFDFD"/>
</svg>
